<svg width="534" height="100" viewBox="0 0 534 100" fill="none" xmlns="http://www.w3.org/2000/svg">
<path d="M203.55 51.8402C203.55 48.9902 203.55 46.1402 203.55 43.3002C203.55 43.1902 203.55 43.0802 203.55 42.9702C203.44 40.6602 202.86 38.5002 201.42 36.6302C199.69 34.3902 196.93 33.3402 194.45 34.0502C192.46 34.6202 191.1 35.9802 190.09 37.7202C188.46 40.5402 187.89 43.6202 187.88 46.8402C187.87 51.5002 188.7 55.9402 191.33 59.8902C194.31 64.3602 198.46 65.1202 202.86 62.1102C203.41 61.7302 203.58 61.3402 203.57 60.7002C203.53 57.7502 203.55 54.8002 203.55 51.8402ZM203.55 67.4902C202.15 68.4302 201 69.3102 199.75 70.0102C194.47 72.9902 189.37 72.5202 184.54 69.0102C179.14 65.0902 176.44 59.6002 175.53 53.1202C174.86 48.3702 175.18 43.7502 176.79 39.1802C179.98 30.1702 192.44 23.8402 202.62 31.1502C202.85 31.3202 203.09 31.4702 203.54 31.7602V27.5702C203.54 25.0002 203.57 24.8902 201.1 24.1402C198.84 23.4602 198.08 22.3902 200.42 20.5302C204.37 17.3702 208.19 14.0702 212.06 10.8302C212.61 10.3702 213.25 9.86019 213.87 10.3802C214.28 10.7202 214.55 11.4702 214.55 12.0302C214.59 27.6102 214.61 43.1902 214.55 58.7602C214.54 62.2102 215.71 65.0002 218.35 67.2002C218.91 67.6702 219.45 68.2602 219.07 68.9302C218.81 69.3902 218.11 69.7702 217.55 69.8802C213.65 70.5802 209.73 71.2102 205.82 71.8502C204.06 72.1402 203.54 71.6802 203.54 69.8702C203.55 69.1302 203.55 68.3902 203.55 67.4902Z" fill="#FFFFFF"/>
<path d="M47.5607 47.4702C46.4307 48.6602 45.3007 49.8602 44.1707 51.0602C39.6407 55.8902 35.1007 60.7002 30.6007 65.5502C29.8407 66.3702 29.1007 66.7002 28.0407 66.1802C27.4007 65.8602 26.6907 65.6702 26.0107 65.4302C24.4507 64.8602 24.3107 64.6502 24.4307 62.9702C24.9507 55.3702 25.4807 47.7702 26.0107 40.1702C26.1107 38.7002 26.6707 37.0502 26.1807 35.8102C25.6907 34.5902 24.1507 33.7802 23.0607 32.7902C21.9307 31.7602 22.0907 30.8202 23.5407 30.3002C27.9907 28.6902 32.4407 27.1002 36.8907 25.5102C38.3907 24.9802 38.9807 25.4602 38.8807 27.0702C38.3507 35.0302 37.8107 42.9902 37.2707 50.9502C37.2507 51.2302 37.2507 51.5102 37.2307 52.1202C37.7607 51.6102 38.1107 51.2902 38.4307 50.9502C43.4507 45.6002 48.4807 40.2602 53.4707 34.8802C54.2707 34.0202 55.0207 33.7002 56.1207 34.2302C56.8007 34.5602 57.5207 34.8202 58.2607 35.0102C59.4307 35.3102 59.8507 36.0102 59.8407 37.2102C59.8207 44.1502 59.8607 51.0902 59.8807 58.0202C59.8907 59.8802 59.9107 61.7502 59.9207 63.8202C60.3207 63.4902 60.5707 63.3102 60.7907 63.0902C62.7507 61.1902 64.7707 59.3402 66.6407 57.3502C67.4407 56.5102 68.0507 55.4402 68.5607 54.3902C69.4307 52.5902 69.0207 50.9702 67.5207 49.6102C65.8507 48.0902 65.0207 46.2102 65.2007 43.9202C65.4707 40.6002 68.4907 37.9502 71.8407 38.1202C77.9107 38.4302 80.9107 43.9202 78.1307 49.5102C75.8607 54.0602 72.6507 57.9002 68.9607 61.2802C64.0007 65.8502 58.7707 70.1602 53.6007 74.5302C53.2107 74.8602 52.4007 74.8902 51.8407 74.7802C50.9607 74.6102 50.1507 74.1502 49.2807 73.9002C48.2507 73.6102 47.8607 73.0202 47.8707 71.9402C47.9007 65.6502 47.8607 59.3602 47.8407 53.0702C47.8407 51.2502 47.8307 49.4202 47.8207 47.6002C47.7307 47.5602 47.6507 47.5102 47.5607 47.4702Z" fill="#FFFFFF"/>
<path d="M141.69 36.8795C143.52 35.3895 145.13 33.9595 146.87 32.6895C149.89 30.4895 153.11 28.6895 156.89 28.0995C161.51 27.3795 165.76 29.8395 167.03 34.3695C167.68 36.6995 167.99 39.1795 168.06 41.5995C168.22 47.5095 168.15 53.4295 168.15 59.3395C168.15 62.3295 169.31 64.7895 171.47 66.8095C171.76 67.0795 172.15 67.3195 172.29 67.6495C172.47 68.0695 172.61 68.6395 172.45 69.0195C172.32 69.3495 171.75 69.6495 171.36 69.6795C170.17 69.7695 168.98 69.7095 167.78 69.7095C163.26 69.7095 158.74 69.7395 154.22 69.6795C153.67 69.6695 152.91 69.3495 152.62 68.9295C152.19 68.2895 152.65 67.6195 153.24 67.1695C156.16 64.9595 157.04 61.8695 157.04 58.3995C157.04 53.3195 157.05 48.2295 157.03 43.1495C157.03 42.4695 156.96 41.7795 156.84 41.1095C156.35 38.5195 154.4 37.2195 151.61 37.7195C147.86 38.3895 144.81 40.4095 142 42.8495C141.78 43.0495 141.68 43.4795 141.68 43.8095C141.66 49.0695 141.63 54.3395 141.69 59.5995C141.72 62.4195 142.72 64.8795 144.94 66.7495C145.22 66.9895 145.58 67.1795 145.72 67.4895C145.93 67.9395 146.19 68.5495 146.03 68.9295C145.87 69.2995 145.24 69.6295 144.78 69.6895C143.85 69.7995 142.9 69.7195 141.96 69.7195C137.22 69.7195 132.49 69.7195 127.76 69.7295C127.07 69.7295 126.41 69.6895 126.13 68.9595C125.84 68.2095 126.22 67.6295 126.8 67.1695C129.6 64.9395 130.61 61.9495 130.6 58.4995C130.59 53.5595 130.57 48.6195 130.62 43.6795C130.62 42.9195 130.37 42.5995 129.68 42.3895C128.75 42.1095 127.85 41.7295 126.95 41.3595C125.82 40.8895 125.63 39.8695 126.58 39.0795C130.84 35.5095 135.12 31.9595 139.43 28.4495C139.8 28.1495 140.6 27.9595 140.97 28.1495C141.35 28.3495 141.64 29.0695 141.65 29.5795C141.72 31.9595 141.69 34.3295 141.69 36.8795Z" fill="#FFFFFF"/>
<path d="M281.662 36.8797C283.482 35.3997 285.092 33.9697 286.832 32.6997C289.852 30.4997 293.072 28.6897 296.852 28.1097C301.482 27.3897 305.742 29.8397 307.002 34.3597C307.662 36.7197 307.972 39.2397 308.032 41.6997C308.192 47.5697 308.122 53.4497 308.122 59.3297C308.122 62.3197 309.272 64.7797 311.432 66.7997C311.722 67.0697 312.112 67.3097 312.262 67.6397C312.442 68.0597 312.612 68.6497 312.432 69.0097C312.262 69.3597 311.682 69.6397 311.242 69.6897C310.352 69.7897 309.442 69.7197 308.532 69.7197C303.762 69.7197 298.992 69.7397 294.222 69.6897C293.662 69.6797 292.902 69.3697 292.612 68.9497C292.182 68.3197 292.622 67.6397 293.222 67.1897C296.142 64.9797 297.032 61.8997 297.032 58.4297C297.032 53.3397 297.042 48.2597 297.022 43.1797C297.022 42.4997 296.952 41.8097 296.832 41.1297C296.342 38.5097 294.322 37.2097 291.502 37.7397C287.802 38.4397 284.772 40.4297 282.002 42.8497C281.782 43.0497 281.672 43.4797 281.672 43.7997C281.652 49.0997 281.622 54.3997 281.682 59.6997C281.722 62.4797 282.732 64.8997 284.912 66.7497C285.242 67.0297 285.632 67.2897 285.832 67.6597C286.032 68.0297 286.202 68.6097 286.042 68.9297C285.862 69.2997 285.322 69.6197 284.902 69.6997C284.202 69.8297 283.462 69.7397 282.732 69.7397C277.742 69.7397 272.752 69.7297 267.772 69.7497C267.092 69.7497 266.422 69.7197 266.132 68.9897C265.832 68.2397 266.212 67.6597 266.782 67.1997C269.612 64.9397 270.612 61.9197 270.592 58.4197C270.572 53.5097 270.572 48.6097 270.602 43.6997C270.612 42.9597 270.382 42.6097 269.682 42.3997C268.752 42.1197 267.852 41.7397 266.952 41.3697C265.822 40.8997 265.622 39.8797 266.552 39.0997C270.812 35.5297 275.092 31.9797 279.402 28.4697C279.782 28.1597 280.562 27.9697 280.942 28.1497C281.322 28.3397 281.612 29.0697 281.632 29.5697C281.702 31.9497 281.662 34.3297 281.662 36.8797Z" fill="#FFFFFF"/>
<path d="M108.271 48.4497C105.871 49.3097 103.611 50.0297 101.421 50.9097C99.371 51.7397 97.501 52.8897 96.021 54.5997C93.131 57.9597 94.7411 63.3697 98.9011 64.2697C101.101 64.7397 103.211 64.3797 105.191 63.3597C106.851 62.5097 108.121 61.1497 108.211 59.2797C108.381 55.8097 108.271 52.3197 108.271 48.4497ZM108.011 44.3297C108.181 39.7597 104.681 34.6597 100.591 33.7197C99.921 33.5697 99.1411 33.5897 98.4811 33.7697C97.1911 34.1297 96.8111 34.8397 97.1111 36.1497C97.5911 38.2797 97.7611 40.3597 96.4111 42.2697C94.7111 44.6997 91.4611 45.5797 88.6811 44.3497C86.1411 43.2297 84.7011 40.1597 85.3911 37.2797C86.1911 33.8997 88.4611 31.6997 91.4211 30.1697C95.1711 28.2197 99.2311 27.6397 103.401 28.0597C105.251 28.2497 107.141 28.5397 108.901 29.1197C114.741 31.0197 117.851 35.3097 118.881 41.1797C119.211 43.0497 119.291 44.9697 119.331 46.8797C119.391 50.9597 119.361 55.0297 119.341 59.1097C119.331 62.2897 120.501 64.9297 122.941 66.9897C123.051 67.0797 123.211 67.1597 123.261 67.2797C123.491 67.8397 123.911 68.4497 123.821 68.9697C123.761 69.3297 123.021 69.7597 122.531 69.8497C119.761 70.3597 116.981 70.7797 114.211 71.2397C113.001 71.4397 111.791 71.6597 110.591 71.8597C108.861 72.1397 108.331 71.6797 108.321 69.9397C108.311 69.1097 108.311 68.2797 108.301 67.4497C108.301 67.3797 108.271 67.3097 108.211 67.0797C107.921 67.2797 107.681 67.4297 107.441 67.6097C102.881 70.9697 97.8211 72.5397 92.1711 71.6197C88.0311 70.9397 85.0711 68.5797 83.7911 64.5397C82.5111 60.4997 83.6511 56.9297 86.5111 53.8997C89.9811 50.2297 94.3811 48.0797 99.1111 46.6097C102.001 45.7097 104.971 45.0997 108.011 44.3297Z" fill="#FFFFFF"/>
<path d="M340.041 48.6603C336.781 49.4003 333.711 50.3803 330.941 52.1003C329.791 52.8103 328.701 53.6903 327.781 54.6803C326.131 56.4603 325.971 58.6103 326.791 60.8303C327.581 62.9403 329.111 64.2503 331.391 64.3403C332.801 64.3903 334.281 64.2803 335.631 63.8903C338.731 62.9803 340.081 61.0303 340.101 57.8403C340.111 55.1403 340.101 52.4403 340.101 49.7403C340.091 49.4003 340.061 49.0903 340.041 48.6603ZM340.091 66.8703C337.871 68.8003 335.631 70.0003 333.181 70.7903C329.311 72.0503 325.401 72.4603 321.521 70.9103C315.181 68.3903 313.051 60.6203 317.201 55.1703C319.861 51.6803 323.511 49.5203 327.481 47.8303C331.321 46.2003 335.321 45.1703 339.441 44.5703C339.541 44.5603 339.641 44.4903 339.731 44.4603C340.211 40.1903 336.501 34.6803 332.421 33.7203C331.691 33.5503 330.831 33.5903 330.101 33.8003C328.941 34.1303 328.691 34.8503 328.831 36.0703C328.991 37.4503 329.291 38.9103 329.021 40.2203C328.311 43.6203 324.921 45.5203 321.541 44.6803C318.281 43.8703 316.361 40.5903 317.171 37.2203C317.981 33.8403 320.231 31.5903 323.231 30.1503C329.381 27.1803 335.731 27.1403 342.021 29.6403C347.151 31.6703 349.701 35.8703 350.651 41.1003C350.991 42.9703 351.071 44.8903 351.101 46.8003C351.171 50.8803 351.131 54.9503 351.111 59.0303C351.101 62.2503 352.271 64.9203 354.751 67.0003C354.831 67.0703 354.951 67.1303 354.991 67.2203C355.231 67.7803 355.711 68.3903 355.611 68.8903C355.531 69.2903 354.781 69.7403 354.271 69.8403C352.011 70.2903 349.721 70.6203 347.441 71.0003C345.801 71.2703 344.171 71.5303 342.531 71.8203C340.641 72.1503 340.101 71.7003 340.091 69.7703C340.091 68.9303 340.091 68.0803 340.091 66.8703Z" fill="#FFFFFF"/>
<path d="M415.121 62.9397C413.801 64.0797 412.781 65.0297 411.681 65.9097C408.591 68.3697 405.311 70.4997 401.421 71.5197C395.091 73.1897 389.831 69.7597 389.341 63.2497C388.871 56.8197 388.841 50.3597 388.681 43.9097C388.661 43.0297 388.471 42.5397 387.581 42.2997C386.791 42.0897 386.021 41.7497 385.251 41.4397C383.811 40.8697 383.641 39.9597 384.821 38.9597C387.751 36.4997 390.701 34.0597 393.641 31.6097C394.831 30.6097 395.991 29.5797 397.241 28.6497C397.711 28.2997 398.581 27.8897 398.911 28.0897C399.351 28.3497 399.651 29.1897 399.661 29.7897C399.701 38.6597 399.681 47.5397 399.701 56.4097C399.701 57.3397 399.741 58.2997 399.981 59.1897C400.641 61.6497 402.771 62.6397 405.681 62.0397C409.231 61.2997 412.081 59.3097 414.771 57.0397C414.991 56.8497 415.111 56.4197 415.111 56.0997C415.131 51.8797 415.111 47.6597 415.141 43.4397C415.141 42.8597 414.921 42.6197 414.411 42.4397C413.421 42.0997 412.441 41.7397 411.471 41.3397C410.331 40.8697 410.161 39.8597 411.111 39.0597C415.341 35.5097 419.591 31.9797 423.871 28.4797C424.241 28.1797 425.091 27.9497 425.391 28.1597C425.821 28.4597 426.161 29.1897 426.161 29.7397C426.201 39.5097 426.241 49.2897 426.171 59.0597C426.141 62.2897 427.271 64.8697 429.721 66.9197C430.001 67.1497 430.271 67.3897 430.491 67.6797C431.161 68.5597 430.841 69.5097 429.751 69.7097C427.271 70.1797 424.781 70.5697 422.291 70.9797C420.481 71.2797 418.671 71.5997 416.841 71.8497C415.461 72.0397 415.131 71.7397 415.131 70.3697C415.101 68.0297 415.121 65.6597 415.121 62.9397Z" fill="#FFFFFF"/>
<path d="M496.04 45.2101C495.73 44.2201 495.49 43.3201 495.16 42.4501C494.03 39.4701 492.71 36.5801 490.15 34.5101C489.02 33.5901 487.76 33.0701 486.25 33.3001C484.15 33.6201 482.99 35.0401 482.18 36.8001C480.86 39.6901 480.64 42.7701 480.77 45.8901C480.83 47.4101 481.02 48.9201 481.16 50.5601C486.23 48.7401 491.07 47.0001 496.04 45.2101ZM482.2 54.6801C482.56 58.3801 486.14 62.2401 490.07 63.2301C495.28 64.5401 500.79 62.4401 504.28 57.8001C504.6 57.3701 504.93 56.9301 505.21 56.4701C505.67 55.7101 506.24 55.5001 507.12 55.8001C509 56.4301 509.2 56.7201 508.49 58.6001C505.6 66.2801 499.93 70.4901 491.91 71.6701C486.15 72.5201 480.92 71.1501 476.41 67.4401C472.6 64.3101 470.33 60.1901 469.12 55.4601C467.87 50.5201 467.89 45.6101 469.75 40.8101C472.37 34.0501 477.42 30.0001 484.4 28.4801C491.65 26.9101 498.09 28.6401 503.34 34.0401C505.85 36.6201 507.49 39.7301 508.61 43.1201C509.09 44.5701 508.88 44.9401 507.44 45.4701C501.48 47.6401 495.52 49.8001 489.56 51.9701C487.11 52.8901 484.65 53.7901 482.2 54.6801Z" fill="#FFFFFF"/>
<path d="M371.351 30.1197C374.721 30.1197 377.901 30.1197 381.081 30.1197C381.821 30.1197 382.731 30.0797 382.861 30.9497C383.001 31.8997 382.831 32.9197 382.611 33.8597C382.551 34.0897 381.741 34.2497 381.271 34.2597C378.341 34.2997 375.411 34.3097 372.481 34.2597C371.571 34.2397 371.321 34.5197 371.331 35.4197C371.411 42.8897 371.441 50.3497 371.511 57.8197C371.511 58.4997 371.601 59.1897 371.771 59.8497C372.491 62.6097 374.991 63.9897 378.161 63.3797C379.151 63.1897 380.131 62.9397 381.111 62.6997C381.821 62.5297 382.331 62.7497 382.611 63.4097C382.841 63.9697 383.161 64.5597 383.181 65.1397C383.191 65.6797 383.011 66.4197 382.641 66.7397C378.541 70.2497 373.841 72.1797 368.361 71.8997C365.281 71.7397 362.361 69.2997 361.361 65.8397C360.861 64.0897 360.511 62.2397 360.491 60.4297C360.381 52.1297 360.401 43.8397 360.421 35.5397C360.421 34.5797 360.221 34.1397 359.181 34.2697C358.501 34.3497 357.801 34.3297 357.121 34.2597C356.761 34.2197 356.321 34.0597 356.091 33.7997C355.501 33.1297 355.781 30.7797 356.471 30.1997C360.641 26.6997 364.821 23.1797 369.031 19.7197C369.421 19.3897 370.241 19.1497 370.621 19.3397C371.011 19.5397 371.301 20.3097 371.321 20.8397C371.391 23.4997 371.351 26.1797 371.351 28.8497V30.1197Z" fill="#FFFFFF"/>
<path d="M236.791 34.9402C237.191 34.5002 237.571 34.0302 238.001 33.6302C239.471 32.2502 240.851 30.7402 242.481 29.5702C245.891 27.1302 250.301 27.4302 252.761 30.1802C254.641 32.2902 255.201 34.8302 254.401 37.5402C253.681 39.9502 251.961 41.4102 249.501 41.9102C247.141 42.3902 245.181 41.5002 243.471 39.9402C243.231 39.7202 243.021 39.4702 242.791 39.2402C240.921 37.3502 238.551 37.4102 236.791 39.4302C236.611 39.6402 236.531 40.0102 236.531 40.3102C236.521 46.8302 236.501 53.3602 236.541 59.8902C236.551 62.6902 237.831 64.9302 239.861 66.7902C240.481 67.3502 241.361 67.8602 240.951 68.9202C240.531 70.0102 239.531 69.7102 238.701 69.7102C233.351 69.7202 228.001 69.7402 222.651 69.6802C222.091 69.6802 221.341 69.3603 221.041 68.9403C220.591 68.3003 221.091 67.6602 221.631 67.1702C223.261 65.7102 224.751 64.1302 225.121 61.8602C225.301 60.7302 225.421 59.5702 225.431 58.4302C225.461 53.5202 225.431 48.6202 225.471 43.7102C225.471 42.9202 225.231 42.5602 224.481 42.3502C223.581 42.0902 222.721 41.7202 221.851 41.3602C220.661 40.8702 220.481 39.8502 221.471 39.0202C225.741 35.4502 230.001 31.8902 234.311 28.3702C234.661 28.0802 235.401 27.9102 235.761 28.0802C236.131 28.2502 236.461 28.9202 236.481 29.3802C236.561 31.1702 236.511 32.9702 236.511 34.7602C236.601 34.8402 236.691 34.8902 236.791 34.9402Z" fill="#FFFFFF"/>
<path d="M449.022 34.9403C449.422 34.5003 449.802 34.0303 450.232 33.6203C451.702 32.2503 453.082 30.7303 454.712 29.5703C458.132 27.1303 462.542 27.4303 464.992 30.1903C466.872 32.3003 467.432 34.8403 466.632 37.5503C465.922 39.9603 464.192 41.4203 461.732 41.9203C459.372 42.4003 457.412 41.5103 455.702 39.9503C455.462 39.7303 455.252 39.4803 455.022 39.2503C453.162 37.3603 450.782 37.4303 449.022 39.4403C448.842 39.6503 448.762 40.0203 448.762 40.3203C448.752 46.8503 448.732 53.3703 448.772 59.9003C448.792 62.7003 450.062 64.9403 452.092 66.8003C452.712 67.3603 453.592 67.8703 453.172 68.9303C452.752 70.0103 451.752 69.7203 450.922 69.7203C445.572 69.7303 440.222 69.7503 434.872 69.6903C434.312 69.6803 433.562 69.3703 433.262 68.9503C432.812 68.3103 433.312 67.6703 433.852 67.1803C435.482 65.7203 436.972 64.1403 437.342 61.8703C437.532 60.7403 437.642 59.5803 437.652 58.4303C437.682 53.5303 437.652 48.6203 437.692 43.7203C437.692 42.9303 437.442 42.5703 436.702 42.3603C435.802 42.1003 434.942 41.7303 434.072 41.3703C432.882 40.8803 432.702 39.8603 433.692 39.0303C437.932 35.4903 442.172 31.9503 446.442 28.4503C446.822 28.1403 447.602 27.9303 447.982 28.1103C448.372 28.2903 448.682 29.0103 448.712 29.5103C448.802 31.2703 448.742 33.0303 448.742 34.7903C448.842 34.8403 448.932 34.8903 449.022 34.9403Z" fill="#FFFFFF"/>
<path d="M39.5109 84.9002C37.8609 89.4402 32.8409 91.7803 28.3009 90.1203C23.7609 88.4703 21.4209 83.4503 23.0809 78.9103C24.7309 74.3703 29.7509 72.0303 34.2909 73.6903C38.8209 75.3403 41.1609 80.3602 39.5109 84.9002Z" fill="#FFFFFF"/>
<path d="M69.9308 19.2899C68.2808 23.8299 63.2608 26.1699 58.7208 24.5099C54.1808 22.8499 51.8408 17.8399 53.5008 13.2999C55.1508 8.7599 60.1708 6.4199 64.7108 8.0799C69.2508 9.7399 71.5808 14.7599 69.9308 19.2899Z" fill="#FFFFFF"/>
</svg>
