<svg width="13" height="13" viewBox="0 0 13 13" fill="#FFFS" xmlns="http://www.w3.org/2000/svg">
<g clip-path="url(#clip0_1104_541)">
<path d="M9.75 8.125C9.30135 8.125 8.9375 8.48885 8.9375 8.9375V11.375H1.625V4.0625H4.0625C4.51115 4.0625 4.875 3.69891 4.875 3.25C4.875 2.80109 4.51115 2.4375 4.0625 2.4375H1.625C0.727441 2.4375 0 3.16494 0 4.0625V11.375C0 12.2723 0.727441 13 1.625 13H8.9375C9.83506 13 10.5625 12.2723 10.5625 11.375V8.9375C10.5625 8.48809 10.1994 8.125 9.75 8.125ZM12.3906 0H8.9375C8.60894 0 8.31238 0.197971 8.18695 0.501465C8.06079 0.805391 8.13061 1.15451 8.36311 1.38709L9.41484 2.4375L4.30117 7.55117C3.98379 7.86855 3.98379 8.38271 4.30117 8.7001C4.45859 8.85879 4.6668 8.9375 4.875 8.9375C5.0832 8.9375 5.2909 8.85815 5.44934 8.69946L10.5625 3.5877L11.6132 4.63836C11.8456 4.87045 12.1941 4.93898 12.4988 4.81452C12.802 4.68711 13 4.39004 13 4.0625V0.609375C13 0.272695 12.7283 0 12.3906 0Z" fill="white"/>
</g>
<defs>
<clipPath id="clip0_1104_541">
<rect width="13" height="13" fill="white"/>
</clipPath>
</defs>
</svg>
